<?xml version="1.0" encoding="UTF-8"?>
<svg width="1514px" height="647px" viewBox="0 0 1514 647" version="1.1" xmlns="http://www.w3.org/2000/svg" xmlns:xlink="http://www.w3.org/1999/xlink">
    <!-- Generator: Sketch 62 (91390) - https://sketch.com -->
    <title>Charj</title>
    <desc>Created with Sketch.</desc>
    <g id="Page-1" stroke="none" stroke-width="1" fill="none" fill-rule="evenodd">
        <g id="Charj" transform="translate(1.000000, 1.000000)">
            <g id="source" transform="translate(0.000000, 266.000000)">
                <rect id="Rectangle" stroke="#979797" fill="#4A4A4A" x="0" y="0" width="223" height="102" rx="2"></rect>
                <text id="source-code" font-family="PingFangSC-Semibold, PingFang SC" font-size="24" font-weight="500" fill="#000000">
                    <tspan x="0" y="138">source code</tspan>
                </text>
                <text id="source-code" font-family="PingFangSC-Semibold, PingFang SC" font-size="24" font-weight="500" fill="#000000">
                    <tspan x="0" y="138">source code</tspan>
                </text>
                <g id="Group" transform="translate(13.000000, 10.000000)">
                    <rect id="Rectangle" stroke="#FFFFFF" fill="#4A4A4A" x="0" y="0" width="96" height="55" rx="2"></rect>
                    <text id="language-text" font-family="PingFangSC-Semibold, PingFang SC" font-size="16" font-weight="500" fill="#FFFFFF">
                        <tspan x="6" y="20">language</tspan>
                        <tspan x="6" y="42">text</tspan>
                    </text>
                </g>
            </g>
            <g id="scie" transform="translate(322.000000, 266.000000)">
                <rect id="Rectangle" stroke="#979797" fill="#4A4A4A" x="0" y="0" width="223" height="102" rx="2"></rect>
                <g id="Group" transform="translate(16.000000, 11.000000)">
                    <rect id="Rectangle" stroke="#FFFFFF" fill="#4A4A4A" x="0" y="0" width="96" height="55" rx="2"></rect>
                    <text id="textmate-syntax" font-family="PingFangSC-Semibold, PingFang SC" font-size="16" font-weight="500" fill="#FFFFFF">
                        <tspan x="6" y="20">textmate </tspan>
                        <tspan x="6" y="42">syntax</tspan>
                    </text>
                </g>
                <text id="Scie-simple-code-ide" font-family="PingFangSC-Semibold, PingFang SC" font-size="24" font-weight="500" fill="#000000">
                    <tspan x="0" y="138">Scie</tspan>
                    <tspan x="0" y="171" font-size="14">simple code identify engine</tspan>
                </text>
            </g>
            <g id="movable" transform="translate(645.000000, 266.000000)">
                <text id="Movable-dsl-for-code" font-family="PingFangSC-Semibold, PingFang SC" font-size="24" font-weight="500" fill="#000000">
                    <tspan x="0" y="138">Movable</tspan>
                    <tspan x="0" y="171" font-size="14">dsl for code transform</tspan>
                </text>
                <rect id="Rectangle" stroke="#979797" fill="#4A4A4A" x="0" y="0" width="223" height="102" rx="2"></rect>
                <g id="Group" transform="translate(7.000000, 10.000000)">
                    <rect id="Rectangle" stroke="#FFFFFF" fill="#4A4A4A" x="0" y="0" width="96" height="55" rx="2"></rect>
                    <text id="typography-dsl" font-family="PingFangSC-Semibold, PingFang SC" font-size="16" font-weight="500" fill="#FFFFFF">
                        <tspan x="6" y="20">typography</tspan>
                        <tspan x="6" y="42">dsl</tspan>
                    </text>
                </g>
                <g id="Group" transform="translate(120.000000, 10.000000)">
                    <rect id="Rectangle" stroke="#FFFFFF" fill="#4A4A4A" x="0" y="0" width="96" height="55" rx="2"></rect>
                    <text id="movable-dsl" font-family="PingFangSC-Semibold, PingFang SC" font-size="16" font-weight="500" fill="#FFFFFF">
                        <tspan x="6" y="20">movable</tspan>
                        <tspan x="6" y="42">dsl</tspan>
                    </text>
                </g>
            </g>
            <g id="charj" transform="translate(967.000000, 266.000000)">
                <rect id="Rectangle" stroke="#979797" fill="#4A4A4A" x="0" y="0" width="223" height="102" rx="2"></rect>
                <text id="Charj" font-family="PingFangSC-Regular, PingFang SC" font-size="24" font-weight="normal" fill="#000000">
                    <tspan x="2" y="138">Charj</tspan>
                    <tspan x="2" y="171" font-size="14">charj compiler</tspan>
                </text>
                <g transform="translate(9.000000, 11.000000)">
                    <rect id="Rectangle" stroke="#FFFFFF" fill="#4A4A4A" x="0" y="0" width="96" height="55" rx="2"></rect>
                    <text id="LLVM" font-family="PingFangSC-Regular, PingFang SC" font-size="16" font-weight="normal" fill="#FFFFFF">
                        <tspan x="6" y="20">LLVM</tspan>
                    </text>
                </g>
                <g transform="translate(121.000000, 11.000000)">
                    <rect id="Rectangle" stroke="#FFFFFF" fill="#4A4A4A" x="0" y="0" width="96" height="55" rx="2"></rect>
                    <text id="Sir" font-family="PingFangSC-Regular, PingFang SC" font-size="16" font-weight="normal" fill="#FFFFFF">
                        <tspan x="6" y="20">Sir</tspan>
                    </text>
                </g>
            </g>
            <g id="target" transform="translate(1289.000000, 266.000000)">
                <rect id="Rectangle" stroke="#979797" fill="#4A4A4A" x="0" y="0" width="223" height="102" rx="2"></rect>
                <text id="target-app" font-family="PingFangSC-Semibold, PingFang SC" font-size="24" font-weight="500" fill="#000000">
                    <tspan x="0" y="139">target app</tspan>
                </text>
            </g>
            <g id="target-languages" transform="translate(967.000000, 499.000000)">
                <rect id="Rectangle" stroke="#979797" fill="#4A4A4A" x="0" y="0" width="223" height="102" rx="2"></rect>
                <text id="target-code" font-family="PingFangSC-Semibold, PingFang SC" font-size="24" font-weight="500" fill="#000000">
                    <tspan x="0" y="141">target code</tspan>
                </text>
            </g>
            <g id="mir" transform="translate(221.000000, 0.000000)">
                <g id="all">
                    <path d="M2,0 L744,0 C745.104569,-2.02906125e-16 746,0.8954305 746,2 L746,205 C746,206.104569 745.104569,207 744,207 L2,207 C0.8954305,207 1.3527075e-16,206.104569 0,205 L0,2 C-1.3527075e-16,0.8954305 0.8954305,2.02906125e-16 2,0 Z" id="bg" stroke="#979797" stroke-width="2" stroke-dasharray="2,2"></path>
                    <rect id="Rectangle" stroke="#979797" fill="#4A4A4A" x="101" y="33" width="223" height="102" rx="2"></rect>
                    <rect id="Rectangle" stroke="#FFFFFF" fill="#4A4A4A" x="117" y="42" width="96" height="55" rx="2"></rect>
                    <text id="mir’s-mir" font-family="PingFangSC-Regular, PingFang SC" font-size="16" font-weight="normal" fill="#FFFFFF">
                        <tspan x="123" y="62">mir’s</tspan>
                        <tspan x="123" y="84">mir</tspan>
                    </text>
                    <text id="MIR" font-family="PingFangSC-Semibold, PingFang SC" font-size="24" font-weight="500" fill="#000000">
                        <tspan x="101" y="174">MIR</tspan>
                    </text>
                    <rect id="Rectangle" stroke="#979797" fill="#4A4A4A" x="423" y="33" width="223" height="102" rx="2"></rect>
                    <text id="MIR-to-HIR" font-family="PingFangSC-Semibold, PingFang SC" font-size="24" font-weight="500" fill="#000000">
                        <tspan x="424" y="171">MIR to HIR</tspan>
                    </text>
                </g>
                <text id="stage-2.0" font-family="PingFangSC-Semibold, PingFang SC" font-size="24" font-weight="500" fill="#000000">
                    <tspan x="613" y="199">stage 2.0</tspan>
                </text>
            </g>
            <path id="Line" d="M209.368686,95.8881632 L210.240261,96.3784245 L222.240261,103.128424 L223.789729,104 L222.240261,104.871576 L210.240261,111.621576 L209.368686,112.111837 L208.388163,110.368686 L209.259739,109.878424 L217.932,104.999 L113,104.999 L113,267 L111,267 L111,103 L217.932,102.999 L209.259739,98.1215755 L208.388163,97.6313143 L209.368686,95.8881632 Z" fill="#979797" fill-rule="nonzero"></path>
            <path id="Line" d="M310.368686,304.888163 L311.240261,305.378424 L323.240261,312.128424 L324.789729,313 L323.240261,313.871576 L311.240261,320.621576 L310.368686,321.111837 L309.388163,319.368686 L310.259739,318.878424 L318.932,314 L222,314 L222,312 L318.932,312 L310.259739,307.121576 L309.388163,306.631314 L310.368686,304.888163 Z" fill="#979797" fill-rule="nonzero"></path>
            <path id="Line" d="M633.368686,304.888163 L634.240261,305.378424 L646.240261,312.128424 L647.789729,313 L646.240261,313.871576 L634.240261,320.621576 L633.368686,321.111837 L632.388163,319.368686 L633.259739,318.878424 L641.932,314 L545,314 L545,312 L641.932,312 L633.259739,307.121576 L632.388163,306.631314 L633.368686,304.888163 Z" fill="#979797" fill-rule="nonzero"></path>
            <path id="Line" d="M955.368686,304.888163 L956.240261,305.378424 L968.240261,312.128424 L969.789729,313 L968.240261,313.871576 L956.240261,320.621576 L955.368686,321.111837 L954.388163,319.368686 L955.259739,318.878424 L963.932,314 L867,314 L867,312 L963.932,312 L955.259739,307.121576 L954.388163,306.631314 L955.368686,304.888163 Z" fill="#979797" fill-rule="nonzero"></path>
            <path id="Line" d="M1079.99216,369.992218 L1079.99997,370.992188 L1080.91217,487.753747 L1080.976,495.925 L1085.78653,487.214173 L1086.26996,486.338794 L1088.02072,487.305669 L1087.53729,488.181048 L1080.88124,500.233414 L1080.02179,501.789644 L1079.13814,500.247032 L1072.2946,488.300131 L1071.79754,487.432412 L1073.53298,486.438302 L1074.03004,487.306021 L1078.976,495.94 L1078.91223,487.769371 L1078.00003,371.007812 L1077.99222,370.007843 L1079.99216,369.992218 Z" fill="#979797" fill-rule="nonzero"></path>
            <path id="Line" d="M1277.36869,304.888163 L1278.24026,305.378424 L1290.24026,312.128424 L1291.78973,313 L1290.24026,313.871576 L1278.24026,320.621576 L1277.36869,321.111837 L1276.38816,319.368686 L1277.25974,318.878424 L1285.932,314 L1189,314 L1189,312 L1285.932,312 L1277.25974,307.121576 L1276.38816,306.631314 L1277.36869,304.888163 Z" fill="#979797" fill-rule="nonzero"></path>
            <path id="Line" d="M1082.01183,95 L1081.99993,96.0117639 L1080.13208,254.779162 L1080.035,262.945 L1085.01613,254.329704 L1085.51661,253.463956 L1087.2481,254.464917 L1086.74762,255.330665 L1079.85692,267.250429 L1078.96718,268.789536 L1078.11389,267.229922 L1071.50553,255.151346 L1071.02555,254.274064 L1072.78012,253.314115 L1073.26009,254.191398 L1078.035,262.92 L1078.13222,254.755634 L1079.988,97 L966,97 L966,95 L1082.01183,95 Z" fill="#979797" fill-rule="nonzero"></path>
            <path d="M248,227 L605,227 C606.104569,227 607,227.895431 607,229 L607,497 C607,498.104569 606.104569,499 605,499 L248,499 C246.895431,499 246,498.104569 246,497 L246,229 C246,227.895431 246.895431,227 248,227 Z" id="bg" stroke="#979797" stroke-width="2" stroke-dasharray="2,2"></path>
            <text id="remove-in-2.0" font-family="PingFangSC-Semibold, PingFang SC" font-size="24" font-weight="500" fill="#000000">
                <tspan x="426" y="482">remove in 2.0</tspan>
            </text>
        </g>
    </g>
</svg>