<?xml version="1.0" encoding="UTF-8"?>
<svg width="16px" height="16px" viewBox="0 0 16 16" version="1.1" xmlns="http://www.w3.org/2000/svg" xmlns:xlink="http://www.w3.org/1999/xlink">
    <!-- Generator: Sketch 62 (91390) - https://sketch.com -->
    <title>ledge</title>
    <desc>Created with Sketch.</desc>
    <g id="Page-1" stroke="none" stroke-width="1" fill="none" fill-rule="evenodd">
        <g id="ledge" fill="#4A4A4A" fill-rule="nonzero">
            <path d="M11.6444444,0.222222222 C10.6666667,1.11111111 9.37777778,1.64444444 8,1.64444444 C6.57777778,1.64444444 5.33333333,1.11111111 4.35555556,0.222222222 C1.77777778,1.6 0,4.26666667 0,7.37777778 L0,16 L16,16 L16,7.33333333 C16,4.22222222 14.2222222,1.55555556 11.6444444,0.222222222 Z M10.8888889,10.9777778 L8.13333333,10.9777778 L8.88888889,10.9777778 L8,11.8666667 L8,10.9333333 L8,10.9333333 L8,11.8666667 L7.06666667,10.9333333 L8.17777778,10.9333333 L4.88888889,10.9333333 L4.88888889,10.9333333 C2.84444444,10.8444444 1.2,9.15555556 1.2,7.11111111 C1.2,4.97777778 2.93333333,3.28888889 5.02222222,3.28888889 C6.17777778,3.28888889 7.24444444,3.82222222 7.91111111,4.62222222 C8.62222222,3.82222222 9.64444444,3.28888889 10.8,3.28888889 C12.9333333,3.28888889 14.6222222,5.02222222 14.6222222,7.11111111 C14.7111111,9.24444444 13.0222222,10.9777778 10.8888889,10.9777778 Z" id="Shape"></path>
            <path d="M6.53333333,8.57777778 L5.06666667,8.57777778 C4.31111111,8.57777778 3.73333333,7.95555556 3.73333333,7.24444444 L3.73333333,7.11111111 C3.73333333,6.35555556 4.35555556,5.77777778 5.06666667,5.77777778 L5.2,5.77777778 C5.95555556,5.77777778 6.53333333,6.4 6.53333333,7.11111111 L6.53333333,8.57777778 Z" id="Path"></path>
            <path d="M9.46666667,8.57777778 L10.9333333,8.57777778 C11.6888889,8.57777778 12.2666667,7.95555556 12.2666667,7.24444444 L12.2666667,7.11111111 C12.2666667,6.35555556 11.6444444,5.77777778 10.9333333,5.77777778 L10.8,5.77777778 C10.0444444,5.77777778 9.46666667,6.4 9.46666667,7.11111111 L9.46666667,8.57777778 Z" id="Path"></path>
        </g>
    </g>
</svg>